<svg width="32" height="32" viewBox="0 0 32 32" fill="none" xmlns="http://www.w3.org/2000/svg">
<path d="M29.3333 22.3199V6.22659C29.3333 4.62659 28.0267 3.43993 26.44 3.57326H26.36C23.56 3.81326 19.3067 5.23993 16.9333 6.73326L16.7067 6.87993C16.32 7.11993 15.68 7.11993 15.2933 6.87993L14.96 6.67993C12.5867 5.19993 8.34667 3.78659 5.54667 3.55993C3.96 3.42659 2.66667 4.62659 2.66667 6.21326V22.3199C2.66667 23.5999 3.70667 24.7999 4.98667 24.9599L5.37333 25.0133C8.26667 25.3999 12.7333 26.8666 15.2933 28.2666L15.3467 28.2933C15.7067 28.4933 16.28 28.4933 16.6267 28.2933C19.1867 26.8799 23.6667 25.3999 26.5733 25.0133L27.0133 24.9599C28.2933 24.7999 29.3333 23.5999 29.3333 22.3199Z" stroke="#292D32" stroke-width="1.5" stroke-linecap="round" stroke-linejoin="round"/>
<path d="M16 7.32031V27.3203" stroke="#292D32" stroke-width="1.5" stroke-linecap="round" stroke-linejoin="round"/>
<path d="M10.3333 11.3203H7.33333" stroke="#292D32" stroke-width="1.5" stroke-linecap="round" stroke-linejoin="round"/>
<path d="M11.3333 15.3203H7.33333" stroke="#292D32" stroke-width="1.5" stroke-linecap="round" stroke-linejoin="round"/>
</svg>
