<svg width="33" height="35" viewBox="0 0 33 35" fill="none" xmlns="http://www.w3.org/2000/svg">
<path d="M11 17.792H20.625" stroke="white" stroke-width="1.5" stroke-miterlimit="10" stroke-linecap="round" stroke-linejoin="round"/>
<path d="M11 23.625H17.0225" stroke="white" stroke-width="1.5" stroke-miterlimit="10" stroke-linecap="round" stroke-linejoin="round"/>
<path d="M13.75 8.75033H19.25C22 8.75033 22 7.29199 22 5.83366C22 2.91699 20.625 2.91699 19.25 2.91699H13.75C12.375 2.91699 11 2.91699 11 5.83366C11 8.75033 12.375 8.75033 13.75 8.75033Z" stroke="white" stroke-width="1.5" stroke-miterlimit="10" stroke-linecap="round" stroke-linejoin="round"/>
<path d="M22 5.8623C26.5787 6.1248 28.875 7.91855 28.875 14.5831V23.3331C28.875 29.1665 27.5 32.0831 20.625 32.0831H12.375C5.5 32.0831 4.125 29.1665 4.125 23.3331V14.5831C4.125 7.93314 6.42125 6.1248 11 5.8623" stroke="white" stroke-width="1.5" stroke-miterlimit="10" stroke-linecap="round" stroke-linejoin="round"/>
</svg>
