<svg width="33" height="33" viewBox="0 0 33 33" fill="none" xmlns="http://www.w3.org/2000/svg">
<path d="M13.8463 3.87777L4.31751 11.509C3.24501 12.3615 2.55751 14.1628 2.79126 15.5103L4.62001 26.4553C4.95001 28.4078 6.82 29.989 8.8 29.989H24.2C26.1663 29.989 28.05 28.394 28.38 26.4553L30.2088 15.5103C30.4288 14.1628 29.7413 12.3615 28.6825 11.509L19.1537 3.89154C17.6825 2.70904 15.3038 2.70902 13.8463 3.87777Z" stroke="#292D32" stroke-width="1.5" stroke-linecap="round" stroke-linejoin="round"/>
<path d="M16.5 21.3125C18.3985 21.3125 19.9375 19.7735 19.9375 17.875C19.9375 15.9765 18.3985 14.4375 16.5 14.4375C14.6015 14.4375 13.0625 15.9765 13.0625 17.875C13.0625 19.7735 14.6015 21.3125 16.5 21.3125Z" stroke="#292D32" stroke-width="1.5" stroke-linecap="round" stroke-linejoin="round"/>
</svg>
