<svg width="49" height="49" viewBox="0 0 49 49" fill="none" xmlns="http://www.w3.org/2000/svg">
<path d="M49 24.5C49 38.031 38.031 49 24.5 49C10.969 49 0 38.031 0 24.5C0 10.969 10.969 0 24.5 0C38.031 0 49 10.969 49 24.5Z" fill="#D9D9D9"/>
<path d="M9.04613 43.5123C10.372 36.9874 16.7866 32.0385 24.5 32.0385C32.2134 32.0385 38.628 36.9874 39.9539 43.5123C35.738 46.9432 30.3592 49 24.5 49C18.6408 49 13.262 46.9432 9.04613 43.5123Z" fill="white"/>
<path d="M32.0385 21.2019C32.0385 25.452 28.5931 28.8974 24.3429 28.8974C20.0928 28.8974 16.6474 25.452 16.6474 21.2019C16.6474 16.9518 20.0928 13.5064 24.3429 13.5064C28.5931 13.5064 32.0385 16.9518 32.0385 21.2019Z" fill="white"/>
<path d="M24.5 32.5381C31.8932 32.5381 37.9922 37.2038 39.3955 43.3174C38.9433 43.6758 38.4778 44.0181 38 44.3438C37.9196 44.3986 37.8389 44.453 37.7578 44.5068C37.6803 44.5583 37.6026 44.6096 37.5244 44.6602C37.457 44.7038 37.3892 44.747 37.3213 44.79C37.2419 44.8403 37.1621 44.8901 37.082 44.9395C37.0067 44.9859 36.9314 45.0325 36.8555 45.0781C36.7828 45.1218 36.7099 45.165 36.6367 45.208C36.5515 45.2581 36.4658 45.3074 36.3799 45.3564C36.2672 45.4208 36.1539 45.4843 36.04 45.5469C35.6194 45.778 35.1913 45.997 34.7559 46.2031C34.6509 46.2528 34.5453 46.3014 34.4395 46.3496C34.3752 46.3789 34.3107 46.4078 34.2461 46.4365C34.1584 46.4756 34.0707 46.5147 33.9824 46.5527C33.9072 46.5851 33.8315 46.6168 33.7559 46.6484C33.6275 46.7022 33.4987 46.7551 33.3691 46.8066C33.3334 46.8209 33.2975 46.8346 33.2617 46.8486C33.1456 46.8942 33.0291 46.9386 32.9121 46.9824C32.4869 47.1416 32.0564 47.2904 31.6201 47.4258C31.453 47.4776 31.2849 47.5269 31.1162 47.5752C31.0675 47.5891 31.0186 47.6026 30.9697 47.6162C30.8299 47.6553 30.6896 47.6929 30.5488 47.7295C30.5137 47.7386 30.4786 47.7479 30.4434 47.7568C30.2983 47.7938 30.1529 47.83 30.0068 47.8643C29.9584 47.8756 29.9099 47.8873 29.8613 47.8984C29.7319 47.928 29.6019 47.956 29.4717 47.9834C28.9803 48.0869 28.4834 48.1741 27.9814 48.2471C27.8622 48.2644 27.7429 48.2823 27.623 48.2979C27.5509 48.3072 27.4786 48.3155 27.4062 48.3242C27.2747 48.3401 27.1429 48.3554 27.0107 48.3691C26.9642 48.374 26.9177 48.3782 26.8711 48.3828C26.724 48.3972 26.5766 48.4101 26.4287 48.4219C26.3728 48.4263 26.3168 48.4305 26.2607 48.4346C26.1347 48.4437 26.0084 48.4518 25.8818 48.459C25.8077 48.4632 25.7335 48.4672 25.6592 48.4707C25.5286 48.4769 25.3977 48.4822 25.2666 48.4863C25.2051 48.4883 25.1436 48.4907 25.082 48.4922C24.8886 48.4968 24.6946 48.5 24.5 48.5C24.2432 48.5 23.9873 48.4943 23.7324 48.4863C23.6013 48.4822 23.4704 48.4769 23.3398 48.4707C23.2655 48.4672 23.1913 48.4632 23.1172 48.459C22.9906 48.4518 22.8643 48.4437 22.7383 48.4346C22.6822 48.4305 22.6263 48.4263 22.5703 48.4219C22.4225 48.4101 22.275 48.3972 22.1279 48.3828C22.0814 48.3782 22.0348 48.374 21.9883 48.3691C21.8561 48.3554 21.7243 48.3401 21.5928 48.3242C21.5204 48.3155 21.4481 48.3072 21.376 48.2979C21.2562 48.2823 21.1368 48.2644 21.0176 48.2471C20.516 48.1742 20.0193 48.0868 19.5283 47.9834C19.3981 47.956 19.2681 47.928 19.1387 47.8984C19.0898 47.8873 19.041 47.8757 18.9922 47.8643C18.8461 47.83 18.7007 47.7938 18.5557 47.7568C18.5205 47.7479 18.4853 47.7386 18.4502 47.7295C18.3094 47.6929 18.1691 47.6553 18.0293 47.6162C17.9804 47.6026 17.9315 47.5891 17.8828 47.5752C17.7144 47.527 17.5467 47.4775 17.3799 47.4258C16.9433 47.2903 16.5124 47.1417 16.0869 46.9824C15.97 46.9386 15.8534 46.8942 15.7373 46.8486C15.7018 46.8347 15.6663 46.8207 15.6309 46.8066C15.5011 46.755 15.3718 46.7023 15.2432 46.6484C15.1678 46.6169 15.0926 46.585 15.0176 46.5527C14.929 46.5146 14.8409 46.4757 14.7529 46.4365C14.6883 46.4078 14.6239 46.3789 14.5596 46.3496C14.4537 46.3014 14.3482 46.2528 14.2432 46.2031C13.8077 45.997 13.3796 45.778 12.959 45.5469C12.8451 45.4843 12.7319 45.4208 12.6191 45.3564C12.5335 45.3075 12.4483 45.2579 12.3633 45.208C12.2899 45.1649 12.2164 45.122 12.1436 45.0781C12.0677 45.0325 11.9923 44.9859 11.917 44.9395C11.8372 44.8902 11.7579 44.8402 11.6787 44.79C11.6106 44.7469 11.5423 44.704 11.4746 44.6602C11.3965 44.6096 11.3187 44.5583 11.2412 44.5068C11.1601 44.453 11.0794 44.3986 10.999 44.3438C10.5213 44.018 10.0557 43.6759 9.60352 43.3174C11.0067 37.2037 17.1067 32.5381 24.5 32.5381ZM24.5 0.5C37.7548 0.5 48.5 11.2452 48.5 24.5C48.5 31.7266 45.3053 38.2065 40.252 42.6064C38.5286 36.223 32.0983 31.5381 24.5 31.5381C16.9016 31.5381 10.4703 36.2228 8.74707 42.6064C3.69404 38.2065 0.5 31.7264 0.5 24.5C0.5 11.2452 11.2452 0.5 24.5 0.5ZM31.5381 21.2021C31.538 25.176 28.3167 28.3975 24.3428 28.3975C20.369 28.3974 17.1476 25.176 17.1475 21.2021C17.1475 17.2282 20.3689 14.0069 24.3428 14.0068C28.3167 14.0068 31.5381 17.2282 31.5381 21.2021ZM32.5381 21.2021C32.5381 16.6759 28.869 13.0068 24.3428 13.0068C19.8166 13.0069 16.1475 16.676 16.1475 21.2021C16.1476 25.7282 19.8167 29.3974 24.3428 29.3975C28.869 29.3975 32.538 25.7283 32.5381 21.2021Z" stroke="black"/>
</svg>
